<!DOCTYPE svg PUBLIC "-//W3C//DTD SVG 1.1//EN" "http://www.w3.org/Graphics/SVG/1.1/DTD/svg11.dtd">
<!-- Uploaded to: SVG Repo, www.svgrepo.com, Transformed by: SVG Repo Mixer Tools -->
<svg fill="#777777" version="1.1" id="Capa_1" xmlns="http://www.w3.org/2000/svg" xmlns:xlink="http://www.w3.org/1999/xlink" width="93px" height="93px" viewBox="-42.96 -42.96 392.78 392.78" xml:space="preserve" stroke="#777777" stroke-width="0.0030686000000000003" transform="matrix(1, 0, 0, -1, 0, 0)rotate(0)">
<g id="SVGRepo_bgCarrier" stroke-width="0"/>
<g id="SVGRepo_tracerCarrier" stroke-linecap="round" stroke-linejoin="round" stroke="#CCCCCC" stroke-width="1.22744"/>
<g id="SVGRepo_iconCarrier"> <g> <g> <path d="M96.111,153.428c0-9.445-7.656-17.111-17.106-17.111c-3.824,0-7.316,1.31-10.165,3.425h5.774 c7.542,0,13.68,6.128,13.68,13.681c0,7.542-6.139,13.684-13.68,13.684H68.84c2.848,2.117,6.341,3.428,10.165,3.428 C88.455,170.539,96.111,162.875,96.111,153.428z"/> <path d="M85.04,153.428c0-5.398-4.375-9.779-9.779-9.779H18.245c-5.398,0-9.779,4.375-9.779,9.779 c0,5.409,4.381,9.774,9.779,9.774h57.016C80.665,163.202,85.04,158.836,85.04,153.428z"/> <path d="M27.275,167.116h-7.562c-7.55,0-13.686-6.141-13.686-13.688c0-7.552,6.136-13.681,13.686-13.681h7.562 c-2.848-2.115-6.343-3.425-10.165-3.425C7.661,136.322,0,143.983,0,153.433c0,9.447,7.656,17.11,17.111,17.11 C20.927,170.539,24.422,169.234,27.275,167.116z"/> <path d="M200.704,153.428c0-9.445-7.653-17.111-17.108-17.111c-3.821,0-7.322,1.31-10.17,3.425h5.773 c7.544,0,13.686,6.128,13.686,13.681c0,7.542-6.142,13.684-13.686,13.684h-5.773c2.848,2.117,6.349,3.428,10.17,3.428 C193.04,170.539,200.704,162.875,200.704,153.428z"/> <path d="M189.628,153.428c0-5.398-4.376-9.779-9.776-9.779H122.83c-5.398,0-9.773,4.375-9.773,9.779 c0,5.409,4.375,9.774,9.773,9.774h57.021C185.252,163.202,189.628,158.836,189.628,153.428z"/> <path d="M110.612,153.428c0-7.552,6.141-13.681,13.686-13.681h7.563c-2.848-2.115-6.343-3.425-10.167-3.425 c-9.442,0-17.108,7.661-17.108,17.111c0,9.447,7.661,17.11,17.108,17.11c3.824,0,7.319-1.305,10.167-3.428h-7.563 C116.759,167.116,110.612,160.975,110.612,153.428z"/> <path d="M289.747,136.322c-3.821,0-7.312,1.31-10.16,3.425h5.769c7.54,0,13.691,6.128,13.691,13.681 c0,7.547-6.151,13.688-13.691,13.688h-5.769c2.849,2.113,6.339,3.423,10.16,3.423c9.45,0,17.113-7.658,17.113-17.111 C306.855,143.983,299.197,136.322,289.747,136.322z"/> <path d="M295.774,153.428c0-5.398-4.371-9.779-9.776-9.779h-57.012c-5.396,0-9.771,4.375-9.771,9.779 c0,5.409,4.375,9.774,9.771,9.774h57.021C291.403,163.202,295.774,158.836,295.774,153.428z"/> <path d="M227.853,170.539c3.816,0,7.316-1.305,10.16-3.423h-7.556c-7.55,0-13.69-6.141-13.69-13.688 c0-7.552,6.141-13.681,13.69-13.681h7.556c-2.844-2.115-6.344-3.425-10.16-3.425c-9.45,0-17.113,7.661-17.113,17.111 C210.739,162.875,218.402,170.539,227.853,170.539z"/> </g> </g> </g>
</svg>